# xmcd CD database file
#
# Track frame offsets:
#	150
#	17681
#	34798
#	54050
#	72166
#	95172
#	110833
#	127765
#	140978
#	157787
#
# Disc length: 2344 seconds
#
# Revision: 1
# Processed by: cddbd v1.5.1PL0 Copyright (c) Steve Scherf et al.
# Submitted via: CDex 1.50beta10
#
DISCID=8109260a
DTITLE=Wayne Toups - Whoever Said It Was Easy
DYEAR=2004
DGENRE=Country
TTITLE0=I Want To Dance (Je Van Danser)
TTITLE1=Leap of Faith
TTITLE2=Movin' On
TTITLE3=Night Train to New Orleans
TTITLE4=Man In The Mirror
TTITLE5=Whoever Said It Was Easy (w/Delbert McClinton)
TTITLE6=The Ring That Shines
TTITLE7=Whatcha' Doing To Me
TTITLE8=Cheap Imitation of You
TTITLE9=Hole In My Heart
EXTD=YEAR: 2004
EXTT0=
EXTT1=
EXTT2=
EXTT3=
EXTT4=
EXTT5=
EXTT6=
EXTT7=
EXTT8=
EXTT9=
PLAYORDER=
